<svg width="666" height="653" viewBox="0 0 666 653" fill="none" xmlns="http://www.w3.org/2000/svg">
<path d="M241.32 268.113C246.656 272.263 253.052 274.827 259.778 275.51C266.503 276.193 273.284 274.968 279.345 271.975C285.407 268.983 290.502 264.343 294.049 258.589C297.596 252.834 299.45 246.197 299.399 239.437C299.348 232.678 297.394 226.069 293.761 220.368C290.128 214.668 284.963 210.106 278.857 207.205C272.751 204.304 265.952 203.181 259.238 203.966C252.524 204.75 246.166 207.41 240.894 211.64L233.015 205.556L221.289 209.222L222.627 197.495L212.741 189.815L201.03 193.465L202.368 181.738L193.866 175.137L186.718 177.358L187.539 170.21L182.535 166.316L171.311 167.411L169.79 184.659L228.59 230.363C226.762 237.21 226.996 244.444 229.26 251.159C231.524 257.873 235.719 263.771 241.32 268.113ZM284.165 255.839C282.914 257.449 281.213 258.652 279.279 259.295C277.344 259.939 275.262 259.995 273.296 259.455C271.33 258.916 269.567 257.806 268.232 256.266C266.896 254.725 266.047 252.823 265.792 250.8C265.537 248.777 265.888 246.724 266.799 244.9C267.711 243.077 269.142 241.564 270.913 240.554C272.684 239.543 274.715 239.081 276.749 239.224C278.783 239.368 280.728 240.111 282.34 241.36C284.497 243.041 285.9 245.509 286.242 248.223C286.584 250.936 285.837 253.675 284.165 255.839Z" fill="#EBEBEB"/>
<path d="M288.713 130.65C291.005 127.848 292.462 124.457 292.916 120.866C293.371 117.275 292.805 113.628 291.283 110.344C289.761 107.059 287.344 104.27 284.31 102.295C281.276 100.321 277.748 99.2405 274.128 99.1786C270.509 99.1167 266.945 100.076 263.845 101.945C260.746 103.815 258.235 106.52 256.602 109.75C254.968 112.981 254.278 116.606 254.609 120.211C254.941 123.816 256.281 127.254 258.476 130.133L255.084 134.27L256.894 140.597L250.628 139.73L246.415 144.931L248.225 151.259L241.974 150.376L238.323 154.848L239.419 158.696L235.601 158.164L233.487 160.764L233.928 166.848L243.145 167.883L268.362 136.992C272.002 138.052 275.874 138.016 279.493 136.888C283.113 135.76 286.319 133.59 288.713 130.65ZM282.629 107.562C283.473 108.253 284.094 109.18 284.412 110.225C284.73 111.269 284.731 112.384 284.415 113.43C284.1 114.475 283.481 115.403 282.638 116.096C281.795 116.79 280.765 117.218 279.679 117.327C278.592 117.435 277.498 117.219 276.534 116.706C275.571 116.192 274.781 115.405 274.265 114.443C273.749 113.48 273.53 112.387 273.635 111.3C273.74 110.214 274.165 109.182 274.857 108.337C275.315 107.765 275.883 107.291 276.528 106.941C277.173 106.592 277.88 106.374 278.61 106.302C279.34 106.23 280.076 106.304 280.777 106.52C281.477 106.737 282.128 107.091 282.69 107.562H282.629Z" fill="#EBEBEB"/>
<path d="M207.357 0V111.607H47.0334L41.269 0.775688L207.357 0Z" fill="#E0E0E0"/>
<path d="M41.269 0.775635L41.269 111.379L201.592 111.379V0.775635L41.269 0.775635Z" fill="#F6F8FD"/>
<path d="M202.308 112.14H40.5088V0.0153809H202.308V112.14ZM41.9993 110.619H200.787V1.53633H42.0297L41.9993 110.619Z" fill="#E0E0E0"/>
<path d="M184.208 14.5099H58.6235V97.6298H184.208V14.5099Z" fill="#F6F8FD"/>
<path d="M184.224 14.5098H183.6H181.805L174.931 14.6467H149.074L58.6691 14.8292L59.0341 14.4642C59.0341 39.8641 59.0341 68.0016 59.0341 97.5841L58.6387 97.1887L184.239 97.2799L183.919 97.5841C183.919 72.2907 184.041 51.5602 184.087 37.1111C184.087 29.8866 184.087 24.2591 184.163 20.3807C184.163 18.4643 184.163 17.0042 184.163 15.9851C184.163 14.9661 184.163 14.4642 184.163 14.4642C184.163 14.4642 184.163 14.9509 184.163 15.9851C184.163 17.0194 184.163 18.4339 184.163 20.3198C184.163 24.1678 184.163 29.7954 184.163 37.0503C184.163 51.545 184.269 72.3516 184.33 97.721V98.0404H184.026H58.4257H58.0303V97.6298C58.0303 68.0473 58.0303 39.9097 58.0303 14.5098V14.1448H58.3953L149.044 14.3273L174.9 14.4338H181.729H183.478L184.224 14.5098Z" fill="#E0E0E0"/>
<path d="M41.2539 0.456299C42.2443 0.943045 43.1735 1.54549 44.022 2.25102C45.6647 3.43736 47.8852 5.11041 50.3036 7.04202C52.7219 8.97362 54.8664 10.7988 56.3874 12.1676C57.2468 12.8504 58.0182 13.6372 58.684 14.5099C58.5319 14.6772 54.6839 11.468 49.8625 7.66561C46.8457 5.44404 43.9706 3.03625 41.2539 0.456299Z" fill="#E0E0E0"/>
<path d="M201.578 0.775635C198.95 3.36135 196.144 5.76016 193.182 7.95452C190.362 10.3449 187.379 12.5353 184.254 14.5098C186.891 11.923 189.707 9.52416 192.68 7.33093C195.488 4.93946 198.461 2.74894 201.578 0.775635Z" fill="#E0E0E0"/>
<path d="M201.456 111.394L183.584 96.8998L201.456 111.394Z" fill="#F6F8FD"/>
<path d="M183.584 96.8998C186.779 99.0041 189.827 101.321 192.71 103.835C195.771 106.175 198.672 108.715 201.395 111.44C198.198 109.34 195.149 107.023 192.269 104.505C189.196 102.18 186.294 99.639 183.584 96.8998Z" fill="#E0E0E0"/>
<path d="M41.2539 111.379C43.8656 108.817 46.6559 106.443 49.6039 104.276C52.3945 101.908 55.3473 99.7381 58.4407 97.7819C55.8434 100.359 53.0574 102.738 50.1058 104.9C47.3127 107.267 44.3545 109.432 41.2539 111.379Z" fill="#E0E0E0"/>
<path d="M84.1294 40.4117V68.2451H163.158V40.4117H84.1294Z" fill="#83BBE1" fill-opacity="0.42"/>
<path d="M605.359 633.978C605.359 634.191 474.74 634.373 313.641 634.373C152.542 634.373 21.877 634.191 21.877 633.978C21.877 633.765 152.481 633.583 313.641 633.583C474.801 633.583 605.359 633.765 605.359 633.978Z" fill="#263238"/>
<path d="M483.364 578.919L521.007 633.658L534.468 633.978L509.798 577.688L483.364 578.919Z" fill="#263238"/>
<path d="M86.1374 581.703L66.3042 633.415H76.2208L110.853 581.931L86.1374 581.703Z" fill="#263238"/>
<path d="M77.5896 393.82L79.1105 460.741C79.2074 465.295 81.0584 469.635 84.2774 472.857C87.4965 476.079 91.8352 477.934 96.3885 478.035L470.831 486.369C473.187 486.422 475.53 486.004 477.722 485.138C479.914 484.273 481.911 482.978 483.596 481.331C485.28 479.683 486.619 477.715 487.532 475.543C488.446 473.37 488.916 471.037 488.915 468.681V388.07C488.911 376.579 484.752 365.477 477.205 356.812C469.657 348.147 459.232 342.503 447.85 340.921C379.301 331.491 237.959 316.996 123.659 337.59C110.54 339.936 98.6892 346.89 90.2427 357.199C81.7962 367.508 77.309 380.495 77.5896 393.82Z" fill="#83BBE1"/>
<path d="M75.9469 417.197C75.9469 417.197 45.102 402.915 38.7901 417.197C32.4781 431.478 39.5657 449 46.5013 458.764C53.4368 468.529 53.4064 589.171 53.4064 589.171L521.22 584.167L526.757 468.164C526.757 468.164 549.191 440.528 547.791 428.619C546.392 416.71 527.456 399.371 505.722 417.151C483.987 434.931 478.345 472.088 478.345 472.088L105.362 474.902C105.362 474.902 106.64 422.718 75.9469 417.197Z" fill="#83BBE1"/>
<path d="M473.615 495.267C473.615 495.48 390.738 495.663 288.53 495.663C186.322 495.663 103.446 495.526 103.446 495.267C103.446 495.009 186.292 494.872 288.53 494.872C390.769 494.872 473.615 495.085 473.615 495.267Z" fill="#263238"/>
<path d="M103.446 546.371C103.426 546.25 103.426 546.127 103.446 546.006C103.446 545.717 103.446 545.352 103.446 544.926C103.446 543.973 103.415 542.589 103.355 540.774C103.355 537.108 103.355 531.922 103.355 525.564C103.355 512.697 103.446 494.917 102.853 475.373C102.737 466.171 102.025 456.985 100.723 447.874C100.45 446.87 100.176 445.867 99.9172 444.832C99.6587 443.798 99.1568 442.931 98.7613 442.003C97.9552 440.163 97.1339 438.399 96.2365 436.741C94.6164 433.655 92.712 430.727 90.5482 427.995C88.7414 425.758 86.702 423.718 84.4644 421.912C82.7647 420.559 80.9358 419.377 79.0042 418.383C77.3213 417.608 75.6004 416.917 73.8481 416.315H74.198L75.2474 416.604C76.5897 416.988 77.8933 417.498 79.141 418.125C81.1277 419.067 83.0046 420.225 84.7381 421.577C87.023 423.372 89.104 425.412 90.9436 427.661C93.1672 430.398 95.1229 433.342 96.7841 436.452C97.7119 438.125 98.5484 439.889 99.3697 441.745C99.7803 442.673 100.161 443.631 100.541 444.589L101.408 447.631C102.765 456.783 103.501 466.016 103.613 475.267C104.206 494.887 104.009 512.667 103.887 525.534C103.796 531.907 103.72 537.093 103.674 540.744C103.674 542.493 103.674 543.877 103.674 544.896V545.96C103.446 546.234 103.446 546.371 103.446 546.371Z" fill="#263238"/>
<path d="M72.3119 444.118C72.6751 443.87 73.1044 443.738 73.5439 443.737C74.7665 443.644 75.9831 443.983 76.9812 444.696C77.6829 445.186 78.2567 445.838 78.6543 446.597C79.1089 447.487 79.2636 448.501 79.0954 449.487C78.9297 450.622 78.4239 451.68 77.6446 452.522C76.8653 453.363 75.8492 453.949 74.7302 454.202C73.6028 454.363 72.4527 454.188 71.4245 453.698C70.3962 453.209 69.5355 452.426 68.9506 451.449C68.4382 450.596 68.1797 449.614 68.2053 448.62C68.26 447.573 68.5953 446.561 69.176 445.688C69.7567 444.816 70.5614 444.116 71.5058 443.661C71.8937 443.452 72.3275 443.342 72.7682 443.342C72.7682 443.418 72.3271 443.524 71.6427 443.935C70.6861 444.527 69.9205 445.383 69.4373 446.399C69.0759 447.112 68.903 447.906 68.9349 448.704C68.9669 449.503 69.2027 450.28 69.6198 450.962C70.1408 451.796 70.8915 452.462 71.7818 452.881C72.6721 453.299 73.6642 453.451 74.639 453.319C75.5923 453.096 76.4593 452.598 77.1325 451.887C77.8057 451.176 78.2555 450.283 78.4261 449.319C78.5602 448.525 78.4688 447.709 78.1623 446.965C77.8558 446.22 77.3465 445.576 76.6923 445.106C75.8255 444.416 74.7579 444.027 73.6504 443.996C72.7682 444.042 72.3271 444.194 72.3119 444.118Z" fill="#263238"/>
<path d="M74.4258 474.141C73.539 473.483 72.8156 472.629 72.3117 471.647C70.9232 469.36 70.1738 466.742 70.1417 464.067C70.1096 461.392 70.796 458.757 72.1292 456.437C72.6142 455.443 73.3158 454.57 74.1825 453.882C74.2889 453.973 73.498 454.932 72.6615 456.696C71.5202 458.981 70.9365 461.503 70.958 464.057C70.9999 466.614 71.6406 469.124 72.8288 471.388C73.711 473.122 74.5475 474.065 74.4258 474.141Z" fill="#263238"/>
<path d="M69.5284 428.984C69.4457 429.757 69.293 430.52 69.0722 431.266C68.4048 434.905 69.203 438.661 71.2928 441.714C71.7856 442.312 72.2379 442.942 72.6464 443.6C72.6464 443.6 71.7947 443.175 70.8365 442.079C69.6024 440.572 68.7438 438.794 68.3313 436.89C67.9188 434.986 67.9642 433.011 68.4638 431.129C68.6339 430.336 69 429.599 69.5284 428.984Z" fill="#263238"/>
<path d="M60.418 445.806C60.6005 445.654 62.015 447.083 64.1747 448.194C66.3345 449.304 68.2965 449.715 68.2661 449.897C66.7088 450.097 65.1309 449.742 63.8097 448.893C62.3556 448.288 61.1568 447.197 60.418 445.806Z" fill="#263238"/>
<path d="M523.015 546.371C523.015 546.584 417.507 546.766 287.359 546.766C157.211 546.766 51.7334 546.584 51.7334 546.371C51.7334 546.158 157.227 545.976 287.481 545.976C417.735 545.976 523.015 546.143 523.015 546.371Z" fill="#263238"/>
<path d="M471.987 472.529C472.215 472.529 472.383 489.046 472.383 509.412C472.383 529.778 472.215 546.325 471.987 546.325C471.759 546.325 471.592 529.808 471.592 509.412C471.592 489.016 471.774 472.529 471.987 472.529Z" fill="#263238"/>
<path d="M315.77 344.906H315.04L312.911 344.982L304.743 345.21L274.659 345.91L175.432 347.902C165.744 348.13 156.268 348.1 147.173 348.708C138.415 349.085 129.75 350.666 121.423 353.408C113.912 355.929 107.19 360.37 101.925 366.291C99.5361 368.965 97.4923 371.929 95.8408 375.112C94.3346 378.039 93.0877 381.093 92.1145 384.238C90.5513 389.701 89.5323 395.305 89.0726 400.968C88.6011 405.987 88.5555 410.322 88.5251 413.881C88.4946 417.44 88.5251 420.178 88.6315 422.049C88.6315 422.961 88.6315 423.661 88.6315 424.178C88.6315 424.695 88.6315 424.908 88.6315 424.908C88.6315 424.908 88.6315 424.665 88.6315 424.178C88.6315 423.691 88.6315 422.961 88.5098 422.049C88.4186 420.193 88.2969 417.486 88.2665 413.881C88.2361 410.276 88.2665 405.972 88.6771 400.923C89.1249 395.203 90.1439 389.542 91.719 384.025C92.682 380.825 93.9238 377.715 95.4302 374.732C97.0673 371.484 99.1117 368.458 101.514 365.728C106.851 359.718 113.667 355.208 121.286 352.648C129.641 349.859 138.343 348.246 147.142 347.857C156.268 347.248 165.759 347.263 175.447 347.035L274.689 345.271L304.759 344.83L312.941 344.739H315.071L315.77 344.906Z" fill="#263238"/>
<path d="M196.011 397.014C196.011 397.014 195.509 397.257 194.733 397.85C193.637 398.692 192.816 399.841 192.376 401.151C192.021 402.084 191.912 403.093 192.058 404.081C192.205 405.069 192.602 406.003 193.212 406.793C193.9 407.834 194.891 408.638 196.051 409.097C197.211 409.556 198.483 409.647 199.697 409.358C200.91 409.069 202.005 408.414 202.834 407.482C203.663 406.55 204.185 405.386 204.331 404.147C204.516 403.164 204.449 402.15 204.135 401.2C203.821 400.25 203.271 399.396 202.536 398.717C201.55 397.754 200.301 397.103 198.946 396.847C197.988 396.679 197.425 396.74 197.425 396.679C197.911 396.5 198.436 396.453 198.946 396.542C200.187 396.685 201.367 397.152 202.369 397.897C203.37 398.642 204.157 399.639 204.65 400.786C205.098 401.895 205.219 403.108 205 404.284C204.803 405.645 204.202 406.916 203.275 407.931C202.347 408.947 201.135 409.66 199.797 409.978C198.459 410.296 197.056 410.204 195.771 409.715C194.486 409.226 193.377 408.362 192.589 407.235C191.867 406.286 191.429 405.152 191.326 403.965C191.258 402.928 191.419 401.89 191.798 400.923C192.317 399.541 193.266 398.363 194.505 397.561C194.949 397.248 195.469 397.058 196.011 397.014Z" fill="#263238"/>
<path d="M189.608 436.422C189.029 434.956 188.64 433.423 188.452 431.859C187.71 428.145 187.793 424.313 188.695 420.634C189.67 416.907 192.01 413.683 195.25 411.6C196.23 410.993 197.304 410.556 198.429 410.307C198.832 410.18 199.257 410.139 199.676 410.185C198.228 410.65 196.84 411.283 195.539 412.071C192.542 414.19 190.388 417.297 189.456 420.847C188.598 424.423 188.443 428.132 188.999 431.767C189.364 434.657 189.729 436.391 189.608 436.422Z" fill="#263238"/>
<path d="M195.144 373.591C194.336 374.664 193.59 375.781 192.908 376.937C191.363 379.784 190.908 383.095 191.628 386.253C192.347 389.41 194.192 392.197 196.817 394.094C197.935 394.848 199.098 395.534 200.3 396.147C199.923 396.145 199.551 396.068 199.205 395.919C198.247 395.581 197.337 395.121 196.498 394.55C193.628 392.675 191.597 389.76 190.834 386.418C190.071 383.076 190.635 379.568 192.406 376.633C192.917 375.754 193.541 374.946 194.262 374.23C194.779 373.698 195.114 373.485 195.144 373.591Z" fill="#263238"/>
<path d="M193.745 404.01C190.965 404.476 188.213 405.096 185.501 405.866C182.875 406.893 180.306 408.061 177.805 409.364C182.2 405.54 187.932 403.615 193.745 404.01Z" fill="#263238"/>
<g opacity="0.3">
<path d="M144.603 496.697C159.369 508.013 177.755 513.556 196.315 512.287C192.462 530.163 188.619 548.044 184.786 565.931C183.767 570.691 182.809 575.999 185.303 580.197C188.801 586.083 196.938 586.661 203.783 586.57C211.387 586.463 219.327 586.281 226.08 582.752C235.647 577.764 240.787 567.178 244.499 557.048C248.21 546.919 251.419 536.059 259.054 528.439C267.819 538.425 279.682 545.179 292.743 547.618C296.546 548.318 300.865 548.531 303.907 546.097C306.949 543.664 307.816 539.375 307.04 535.603C306.028 531.885 304.342 528.385 302.067 525.276L279.8 490.75C276.758 486.081 273.503 481.153 268.408 478.932C264.408 477.183 259.875 477.411 255.525 477.609C219.173 479.726 183.091 485.179 147.736 493.898" fill="black"/>
</g>
<g opacity="0.3">
<path d="M263.571 325.529C254.567 349.317 220.985 354.777 209.137 377.241C197.471 399.508 211.935 428.954 199.92 451.099C195.463 459.281 187.752 465.38 183.463 473.624C180.543 479.16 179.037 485.792 174.337 489.883C168.831 494.674 160.299 494.583 153.683 491.48C147.067 488.377 141.987 482.811 137.272 477.229C128.45 466.765 120.161 455.449 115.978 442.384C108.891 419.919 115.4 394.504 129.667 375.736C143.933 356.967 165.059 344.298 187.372 336.708C209.684 329.118 233.289 326.259 256.757 324.054" fill="black"/>
</g>
<path d="M155.432 262.972C158.84 257.66 163.553 253.308 169.12 250.333C174.727 247.35 181.282 246.689 187.372 248.493C190.364 249.442 193.058 251.153 195.191 253.456C197.324 255.76 198.822 258.578 199.539 261.634C200.497 266.516 199.189 271.961 201.714 276.25C204.604 281.178 211.585 282.73 214.049 287.901C214.696 289.502 214.966 291.231 214.837 292.954C214.707 294.676 214.183 296.346 213.304 297.833C211.53 300.793 209.274 303.436 206.627 305.65C208.221 306.648 209.631 307.914 210.794 309.392C211.372 310.136 211.755 311.012 211.909 311.942C212.063 312.871 211.983 313.824 211.676 314.715C210.684 316.476 209.049 317.784 207.114 318.365C198.616 321.947 189.223 322.829 180.208 320.89C177.805 320.373 175.052 319.719 173.075 321.179" fill="#263238"/>
<path d="M216.316 281.026L211.433 295.916L244.681 314.791L211.22 315.871L213.715 342.99L278.127 327.172C278.127 327.172 281.99 300.905 216.316 281.026L211.753 279.931C210.93 279.738 210.166 279.347 209.528 278.794C208.889 278.24 208.395 277.539 208.087 276.752C207.565 275.471 206.591 274.427 205.35 273.817L199.859 270.957V275.307L202.901 278.851L202.414 287.262C202.286 289.063 202.804 290.851 203.874 292.306C204.944 293.761 206.497 294.787 208.255 295.201L211.296 295.916" fill="#FCBEAB"/>
<path d="M143.477 334.868C142.154 334.868 129.88 337.91 122.853 346.792C115.826 355.674 105.666 389.287 105.666 389.287L131.522 393.759L142.686 421.79C142.686 421.79 208.771 413.136 205.258 409.622C201.862 406.498 198.308 403.548 194.611 400.786L209.821 350.123L228.072 340.267L221.912 314.958L185.151 319.932L143.477 334.868Z" fill="#FAFAFA"/>
<path d="M206.657 361.834C206.657 362.047 186.048 362.23 160.648 362.23C135.249 362.23 114.625 362.047 114.625 361.834C114.625 361.621 135.233 361.439 160.648 361.439C186.064 361.439 206.657 361.621 206.657 361.834Z" fill="#83BBE1"/>
<path d="M202.536 376.724C202.536 376.937 181.927 377.12 156.527 377.12C131.127 377.12 110.503 376.937 110.503 376.724C110.503 376.511 131.097 376.329 156.527 376.329C181.957 376.329 202.536 376.511 202.536 376.724Z" fill="#83BBE1"/>
<path d="M202.536 392.801C202.536 393.029 186.931 393.211 167.676 393.211C148.42 393.211 132.831 393.029 132.831 392.801C132.831 392.573 148.436 392.405 167.676 392.405C186.916 392.405 202.536 392.588 202.536 392.801Z" fill="#83BBE1"/>
<path d="M207.874 408.299C207.874 408.512 192.269 408.695 173.029 408.695C153.789 408.695 138.184 408.512 138.184 408.299C138.184 408.086 153.774 407.904 173.029 407.904C192.284 407.904 207.874 408.071 207.874 408.299Z" fill="#83BBE1"/>
<path d="M224.377 341.803C224.377 342.031 214.065 342.199 201.365 342.199C188.665 342.199 178.337 342.031 178.337 341.803C178.337 341.575 188.634 341.408 201.365 341.408C214.095 341.408 224.377 341.651 224.377 341.803Z" fill="#83BBE1"/>
<path d="M226.05 326.016C226.05 326.244 215.783 326.655 203.129 326.944C190.475 327.233 180.178 327.309 180.178 327.096C180.178 326.883 190.429 326.457 203.098 326.153C215.768 325.848 226.05 325.803 226.05 326.016Z" fill="#83BBE1"/>
<path d="M136.907 369.561C136.341 373.755 135.513 377.911 134.428 382.002C133.6 386.156 132.518 390.255 131.188 394.276C131.754 390.082 132.577 385.927 133.652 381.835C134.471 377.677 135.559 373.578 136.907 369.561Z" fill="#263238"/>
<path d="M208.848 559.467L189.592 620.198L212.802 622.54L234.612 569.763L208.848 559.467Z" fill="#FCBEAB"/>
<path d="M225.837 598.905L214.779 626.282C214.779 626.282 238.932 646.739 237.381 652.001L183.448 632.518L198.916 589.079L225.837 598.905Z" fill="#455A64"/>
<path d="M198.946 617.947C198.37 617.917 197.803 618.101 197.354 618.463C196.905 618.825 196.606 619.34 196.513 619.909C196.46 620.483 196.629 621.055 196.986 621.508C197.342 621.961 197.859 622.259 198.429 622.343C199.039 622.373 199.639 622.177 200.113 621.792C200.587 621.408 200.903 620.862 201 620.259C201 619.103 199.859 617.78 198.718 617.947" fill="#E0E0E0"/>
<path d="M183.448 632.518L185.182 628.198L236.255 648.549C236.255 648.549 238.278 650.45 237.381 652.047L183.448 632.518Z" fill="#E0E0E0"/>
<path d="M215.753 626.373C215.646 626.632 214.232 626.282 212.711 626.647C211.19 627.012 210.019 627.894 209.821 627.696C209.623 627.499 210.551 626.175 212.498 625.704C214.445 625.232 215.89 626.145 215.753 626.373Z" fill="#263238"/>
<path d="M220.559 630.753C220.559 631.042 219.22 631.073 217.928 631.864C216.635 632.655 215.996 633.674 215.692 633.674C215.388 633.674 215.798 632.016 217.426 631.073C219.053 630.13 220.65 630.51 220.559 630.753Z" fill="#263238"/>
<path d="M221.319 638.693C221.061 638.693 221.167 637.172 222.369 636.016C223.57 634.86 225.015 634.693 225.046 634.951C225.076 635.21 224.027 635.712 223.069 636.7C222.11 637.689 221.593 638.769 221.319 638.693Z" fill="#263238"/>
<path d="M217.517 619.848C217.319 620.046 216.239 619.24 214.718 618.799C213.197 618.358 211.859 618.419 211.798 618.145C211.737 617.871 213.213 617.323 214.992 617.871C216.772 618.419 217.776 619.681 217.517 619.848Z" fill="#263238"/>
<path d="M219.707 614.266C218.738 614.183 217.808 613.841 217.015 613.278C216.1 612.754 215.257 612.115 214.506 611.376C214.047 610.952 213.624 610.489 213.243 609.992C213.003 609.716 212.808 609.402 212.665 609.065C212.559 608.816 212.539 608.539 212.607 608.277C212.676 608.015 212.83 607.784 213.045 607.62C213.243 607.483 213.47 607.396 213.708 607.364C213.946 607.332 214.188 607.357 214.414 607.437C214.758 607.564 215.085 607.732 215.388 607.939C215.93 608.287 216.439 608.684 216.909 609.125C217.671 609.868 218.312 610.725 218.81 611.665C219.354 612.484 219.63 613.451 219.601 614.434C219.449 614.434 219.144 613.43 218.217 612.015C217.678 611.194 217.034 610.447 216.3 609.795C215.874 609.401 215.411 609.049 214.916 608.745C214.399 608.395 213.912 608.213 213.684 608.411C213.456 608.608 213.578 608.532 213.684 608.73C213.803 608.975 213.951 609.205 214.125 609.414C214.477 609.88 214.853 610.327 215.251 610.753C215.944 611.465 216.697 612.117 217.502 612.7C218.273 613.169 219.01 613.693 219.707 614.266Z" fill="#263238"/>
<path d="M219.221 614.525C218.989 613.565 219.074 612.557 219.464 611.65C219.964 610.021 220.907 608.563 222.186 607.437C222.46 607.135 222.806 606.908 223.192 606.778C223.578 606.647 223.991 606.618 224.392 606.692C224.631 606.787 224.839 606.947 224.992 607.154C225.145 607.361 225.237 607.606 225.259 607.863C225.285 608.231 225.255 608.6 225.167 608.958C225.044 609.592 224.824 610.202 224.513 610.768C224.003 611.727 223.261 612.543 222.354 613.141C220.833 614.16 219.57 614.084 219.586 613.977C220.399 613.565 221.186 613.102 221.943 612.593C222.692 611.987 223.3 611.224 223.723 610.357C223.96 609.875 224.134 609.364 224.24 608.836C224.361 608.243 224.316 607.696 224.072 607.68C223.829 607.665 223.19 607.848 222.81 608.228C222.372 608.595 221.97 609.002 221.608 609.445C220.991 610.209 220.48 611.053 220.087 611.954C219.464 613.445 219.388 614.54 219.221 614.525Z" fill="#263238"/>
<path d="M281.929 502.294L310.675 552.257L334.189 537.169L305.321 486.446L281.929 502.294Z" fill="#FCBEAB"/>
<path d="M326.067 522.888L340.927 548.5C340.927 548.5 371.894 541.991 375.103 546.447L326.554 577.018L301.778 538.097L326.067 522.888Z" fill="#455A64"/>
<path d="M324.577 555.816C324.191 556.244 323.978 556.799 323.978 557.375C323.978 557.951 324.191 558.507 324.577 558.934C324.992 559.315 325.535 559.526 326.098 559.526C326.661 559.526 327.204 559.315 327.619 558.934C328.018 558.47 328.231 557.874 328.217 557.262C328.203 556.65 327.963 556.064 327.543 555.619C327.059 555.257 326.455 555.094 325.855 555.165C325.255 555.236 324.705 555.534 324.318 555.999" fill="#E0E0E0"/>
<path d="M326.554 576.988L324.212 572.973L371.635 545.17C371.635 545.17 374.388 544.744 375.103 546.417L326.554 576.988Z" fill="#E0E0E0"/>
<path d="M341.55 547.725C341.687 547.968 340.577 548.82 339.892 550.31C339.208 551.801 339.208 553.2 338.934 553.246C338.66 553.291 338.143 551.725 338.934 549.9C339.725 548.075 341.459 547.466 341.55 547.725Z" fill="#263238"/>
<path d="M347.969 546.614C348.167 546.812 347.391 547.862 347.224 549.382C347.056 550.903 347.482 552.09 347.224 552.227C346.965 552.364 345.992 551.132 346.235 549.185C346.478 547.238 347.817 546.401 347.969 546.614Z" fill="#263238"/>
<path d="M354.707 550.888C354.509 551.086 353.444 550.113 353.186 548.424C352.927 546.736 353.764 545.535 353.992 545.656C354.22 545.778 353.992 546.919 354.159 548.303C354.326 549.687 354.92 550.721 354.707 550.888Z" fill="#263238"/>
<path d="M337.52 542.264C337.52 542.553 336.258 542.903 334.98 543.785C333.703 544.668 332.927 545.793 332.668 545.671C332.41 545.55 332.897 544.059 334.417 542.979C335.938 541.899 337.52 542.006 337.52 542.264Z" fill="#263238"/>
<path d="M334.432 537.169C334.432 537.261 333.657 538.006 331.999 538.69C331.019 539.077 329.998 539.352 328.957 539.512C328.336 539.59 327.712 539.635 327.086 539.648C326.717 539.662 326.348 539.621 325.991 539.527C325.731 539.456 325.502 539.301 325.34 539.087C325.178 538.872 325.091 538.61 325.094 538.34C325.107 538.099 325.177 537.864 325.298 537.655C325.42 537.446 325.59 537.269 325.793 537.139C326.103 536.95 326.435 536.802 326.782 536.698C328.39 536.146 330.113 536.015 331.786 536.318C333.581 536.652 334.524 537.306 334.463 537.397C334.402 537.489 333.398 537.139 331.71 537.002C330.724 536.929 329.733 536.98 328.759 537.154C328.195 537.255 327.641 537.402 327.101 537.595C326.493 537.793 326.052 538.067 326.067 538.371C326.082 538.675 326.067 538.523 326.295 538.614C326.559 538.675 326.831 538.701 327.101 538.69C328.677 538.711 330.247 538.491 331.756 538.036C332.625 537.682 333.52 537.392 334.432 537.169Z" fill="#263238"/>
<path d="M334.341 537.702C334.341 537.793 333.276 537.23 332.212 535.755C331.601 534.882 331.148 533.909 330.873 532.88C330.709 532.273 330.602 531.652 330.554 531.025C330.485 530.62 330.522 530.205 330.66 529.818C330.799 529.432 331.034 529.088 331.345 528.819C331.559 528.684 331.806 528.612 332.06 528.612C332.313 528.612 332.56 528.684 332.774 528.819C333.081 529.023 333.357 529.269 333.596 529.549C334.014 530.047 334.363 530.599 334.63 531.192C335.062 532.187 335.245 533.273 335.162 534.356C335.01 536.211 334.204 537.124 334.128 537.048C334.296 536.153 334.413 535.249 334.478 534.34C334.458 533.38 334.23 532.435 333.809 531.572C333.567 531.069 333.255 530.603 332.881 530.188C332.485 529.732 332.029 529.428 331.862 529.61C331.71 529.792 331.6 530.004 331.54 530.233C331.479 530.462 331.47 530.701 331.512 530.933C331.539 531.507 331.615 532.077 331.74 532.637C331.963 533.591 332.322 534.507 332.805 535.359C333.626 536.85 334.447 537.58 334.341 537.702Z" fill="#263238"/>
<path d="M196.36 495.267L252.818 456.878L288.424 526.188L320.789 508.652C320.789 508.652 283.511 417.699 270.126 414.809C262.628 413.166 176.634 429.577 176.634 429.577L167.021 424.756L142.686 421.79L141.165 425.729C136.917 436.486 134.964 448.012 135.43 459.568C135.896 471.123 138.772 482.454 143.872 492.834L145.059 495.252L196.36 495.267Z" fill="#263238"/>
<path d="M176.542 447.236C176.968 449.137 223.692 492.864 223.692 492.864L196.771 583.345L236.955 591.026L277.305 482.035L203.555 409.683L169.805 423.782L176.542 447.236Z" fill="#263238"/>
<path d="M252.818 456.863C252.94 457.046 240.392 465.776 224.817 476.377C209.243 486.978 196.497 495.419 196.36 495.267C196.224 495.115 208.771 486.339 224.361 475.738C239.951 465.137 252.681 456.681 252.818 456.863Z" fill="#455A64"/>
<path d="M281.792 513.26C281.272 512.61 280.814 511.912 280.424 511.176C279.587 509.807 278.431 507.785 277.017 505.29C274.203 500.286 270.461 493.29 266.507 485.518C262.552 477.746 259.054 470.582 256.606 465.396C255.374 462.795 254.4 460.681 253.746 459.221C253.362 458.482 253.051 457.708 252.818 456.909C253.277 457.603 253.684 458.33 254.035 459.084L257.077 465.168C259.723 470.415 263.267 477.426 267.176 485.199C271.085 492.971 274.781 500.028 277.473 505.093C278.766 507.541 279.846 509.564 280.667 511.1C281.097 511.79 281.474 512.512 281.792 513.26Z" fill="#455A64"/>
<path d="M232.073 476.681C230.872 480.017 229.429 483.26 227.753 486.385C226.306 489.617 224.623 492.738 222.719 495.723C225.36 489.153 228.487 482.788 232.073 476.681Z" fill="#455A64"/>
<path d="M105.666 389.287L96.5403 422.992C95.3624 427.351 95.9071 431.997 98.0613 435.965C99.8993 439.377 102.808 442.091 106.34 443.688C109.871 445.284 113.83 445.676 117.605 444.802L189.927 426.992L182.322 411.965L125.347 416.908L131.431 393.759L105.666 389.287Z" fill="#FCBEAB"/>
<path d="M137.743 440.437L138.686 435.539L177.881 428.497L189.273 368.07L262.066 359.401L249.837 423.904L137.743 440.437Z" fill="#CDCBC1"/>
<path d="M221.958 400.618C221.121 400.582 220.316 400.29 219.649 399.782C218.983 399.275 218.488 398.576 218.23 397.779C217.973 396.982 217.965 396.125 218.208 395.323C218.451 394.522 218.934 393.814 219.591 393.294C220.248 392.775 221.048 392.469 221.884 392.417C222.72 392.365 223.552 392.57 224.268 393.005C224.984 393.44 225.55 394.083 225.891 394.848C226.231 395.614 226.329 396.465 226.171 397.287C226.049 398.286 225.538 399.195 224.749 399.819C223.961 400.443 222.958 400.73 221.958 400.618Z" fill="#EBEBEB"/>
<path d="M148.39 267.125L148.527 271.49L150.169 336.891C150.367 344.495 157.044 350.366 165.166 350.092C173.379 349.834 179.98 343.4 179.919 335.719C179.843 327.674 179.919 319.187 179.919 319.187C179.919 319.187 190.277 317.346 192.269 303.779C193.258 297.042 192.786 286 192.117 276.98C191.974 275.057 191.444 273.182 190.557 271.469C189.671 269.755 188.447 268.239 186.959 267.012C185.471 265.784 183.75 264.87 181.9 264.325C180.05 263.78 178.108 263.614 176.193 263.839L148.39 267.125Z" fill="#FCBEAB"/>
<path d="M186.87 284.57C186.878 285.024 186.71 285.463 186.401 285.795C186.092 286.127 185.665 286.326 185.212 286.349C184.994 286.368 184.775 286.344 184.566 286.277C184.358 286.211 184.165 286.104 183.998 285.962C183.831 285.821 183.694 285.648 183.594 285.453C183.495 285.259 183.435 285.046 183.417 284.828C183.409 284.377 183.575 283.94 183.881 283.608C184.187 283.277 184.609 283.076 185.06 283.049C185.502 283.011 185.94 283.15 186.28 283.435C186.619 283.72 186.831 284.128 186.87 284.57Z" fill="#263238"/>
<path d="M189.79 282.806C189.577 283.034 188.269 282.075 186.383 282.091C184.497 282.106 183.159 283.079 182.946 282.851C182.733 282.623 183.067 282.334 183.661 281.893C184.461 281.325 185.417 281.018 186.398 281.011C187.37 281.001 188.322 281.294 189.121 281.847C189.699 282.334 189.897 282.699 189.79 282.806Z" fill="#263238"/>
<path d="M168.436 285.239C168.448 285.694 168.281 286.135 167.971 286.468C167.661 286.801 167.233 286.999 166.778 287.019C166.336 287.057 165.898 286.918 165.558 286.632C165.219 286.347 165.007 285.939 164.968 285.498C164.96 285.045 165.128 284.608 165.438 284.278C165.748 283.949 166.174 283.753 166.626 283.733C166.844 283.712 167.064 283.735 167.273 283.799C167.482 283.864 167.676 283.969 167.845 284.109C168.013 284.249 168.152 284.421 168.253 284.615C168.355 284.809 168.417 285.021 168.436 285.239Z" fill="#263238"/>
<path d="M171.432 283.368C171.219 283.596 169.911 282.638 168.025 282.653C166.139 282.669 164.801 283.642 164.588 283.414C164.375 283.186 164.695 282.897 165.288 282.456C166.094 281.888 167.055 281.58 168.041 281.574C169.008 281.564 169.954 281.857 170.748 282.41C171.326 282.851 171.539 283.262 171.432 283.368Z" fill="#263238"/>
<path d="M178.368 297.133C179.354 296.815 180.376 296.621 181.41 296.555C181.896 296.555 182.337 296.403 182.413 296.068C182.449 295.578 182.332 295.089 182.079 294.669L180.634 291.049C179.287 287.989 178.188 284.825 177.349 281.589C178.946 284.512 180.294 287.565 181.379 290.714L182.778 294.35C183.08 294.924 183.177 295.584 183.052 296.22C182.984 296.389 182.879 296.541 182.745 296.665C182.611 296.789 182.451 296.881 182.277 296.935C182.009 297.008 181.733 297.049 181.455 297.057C180.434 297.216 179.396 297.241 178.368 297.133Z" fill="#263238"/>
<path d="M179.919 319.232C173.529 319.437 167.209 317.857 161.667 314.67C161.667 314.67 166.23 323.917 179.706 322.487L179.919 319.232Z" fill="#AA6550"/>
<path d="M172.178 280.281C171.98 280.783 170.124 280.463 167.919 280.615C165.714 280.768 163.919 281.3 163.645 280.828C163.523 280.6 163.858 280.144 164.588 279.688C165.565 279.114 166.666 278.786 167.797 278.729C168.924 278.645 170.055 278.827 171.098 279.262C171.889 279.627 172.269 280.053 172.178 280.281Z" fill="#263238"/>
<path d="M189.015 276.25C188.68 276.676 187.387 276.25 185.851 276.25C184.315 276.25 182.992 276.57 182.687 276.128C182.383 275.687 182.687 275.49 183.311 275.079C184.076 274.585 184.972 274.331 185.883 274.35C186.793 274.368 187.678 274.66 188.421 275.186C188.969 275.672 189.151 276.113 189.015 276.25Z" fill="#263238"/>
<path d="M178.17 303.901C177.622 303.989 177.061 303.931 176.542 303.734L175.021 303.308C174.596 303.171 174.124 302.973 173.592 302.776C173.058 302.629 172.574 302.34 172.193 301.939C171.873 301.528 171.934 300.798 172.664 300.144C173.171 299.775 173.759 299.532 174.378 299.436C174.998 299.339 175.631 299.392 176.226 299.59C176.822 299.788 177.361 300.125 177.799 300.573C178.238 301.022 178.563 301.568 178.748 302.167C179.067 303.125 178.672 303.764 178.17 303.901Z" fill="#AA6550"/>
<path d="M178.429 303.734C178.246 303.871 177.334 302 175.144 301.437C173.804 301.245 172.438 301.397 171.174 301.878C171.174 301.878 171.417 301.392 172.162 301.011C173.147 300.52 174.276 300.401 175.341 300.677C176.41 300.947 177.345 301.596 177.972 302.502C178.444 303.186 178.52 303.703 178.429 303.734Z" fill="#263238"/>
<path d="M164.055 258.333C166.144 261.627 167.041 265.538 166.595 269.413C166.15 273.288 164.389 276.893 161.607 279.627C158.367 282.669 153.546 284.996 153.226 289.406C152.861 294.289 158.519 297.939 158.519 302.836C158.519 307.734 152.724 311.08 151.584 315.993C150.671 319.947 153.105 323.902 155.781 326.898C158.458 329.894 161.865 332.541 163.386 336.252C164.194 338.343 164.569 340.576 164.491 342.816C164.413 345.056 163.882 347.257 162.93 349.286C161.005 353.32 158.436 357.013 155.325 360.222C151.28 358.774 147.07 357.839 142.792 357.439C143.051 355.826 143.325 354.199 143.599 352.587C143.558 353.529 143.22 354.435 142.632 355.173C142.045 355.911 141.238 356.443 140.329 356.693C138.495 357.16 136.577 357.186 134.731 356.769C129.031 355.868 123.429 354.427 118.001 352.465C120.428 350.277 122.483 347.709 124.085 344.86C124.874 343.42 125.302 341.809 125.331 340.166C125.36 338.523 124.99 336.898 124.252 335.43C122.914 333.149 120.45 331.689 119.218 329.347C117.377 325.848 118.898 321.407 121.514 318.441C124.13 315.476 127.689 313.544 130.807 311.11C133.925 308.677 136.785 305.392 137.028 301.437C137.363 296.327 133.21 291.657 133.728 286.562C134.306 280.752 140.45 277.193 142.853 271.87C144.602 268.022 144.374 263.277 147.051 260.007C148.101 258.839 149.406 257.93 150.865 257.35C152.324 256.77 153.897 256.534 155.462 256.66C158.589 256.932 161.6 257.977 164.223 259.702" fill="#263238"/>
<path d="M181.014 320.692C178.581 322.031 178.718 325.757 180.208 328.115C181.699 330.472 184.087 332.16 185.562 334.533C186.809 336.699 187.244 339.239 186.79 341.697C186.336 344.154 185.022 346.37 183.083 347.948L188.923 350.153L190.201 349.438L193.79 347.4L192.102 351.553H195.844C197.831 351.593 199.79 351.077 201.5 350.062C203.209 349.047 204.6 347.573 205.515 345.808C206.43 344.043 206.832 342.057 206.676 340.075C206.521 338.093 205.814 336.195 204.635 334.594C203.114 332.465 200.711 330.776 200.178 328.206C199.555 325.088 201.912 322.274 203.053 319.324C203.961 316.831 204.055 314.115 203.323 311.565C202.59 309.016 201.069 306.764 198.977 305.133" fill="#263238"/>
<path d="M65.8018 197.602C66.1445 197.772 66.4329 198.034 66.6344 198.36C66.836 198.685 66.9427 199.06 66.9425 199.442V209.572C66.9419 209.885 66.8688 210.193 66.7289 210.473C66.5891 210.752 66.3863 210.996 66.1364 211.184C65.8879 211.377 65.5967 211.509 65.2872 211.567C64.9777 211.625 64.6587 211.609 64.3569 211.519C63.5218 211.305 62.6522 211.262 61.8002 211.393C60.9482 211.524 60.1313 211.825 59.3986 212.279C58.7233 212.665 58.1346 213.185 57.6689 213.808C57.2031 214.43 56.8704 215.142 56.6913 215.899C56.5556 216.668 56.5773 217.457 56.7551 218.218C56.9328 218.979 57.263 219.695 57.7256 220.325C58.2063 221.039 58.8232 221.651 59.541 222.126C60.2587 222.601 61.0631 222.93 61.9082 223.093C63.6244 223.265 65.3481 222.848 66.7963 221.911C68.2444 220.974 69.3311 219.573 69.8779 217.937C69.9588 217.683 70.0889 217.448 70.2607 217.245C70.4325 217.041 70.6427 216.874 70.8793 216.752C71.1158 216.629 71.3741 216.555 71.6395 216.533C71.9048 216.51 72.1719 216.541 72.4255 216.621C72.6792 216.702 72.9144 216.832 73.1178 217.004C73.3212 217.176 73.4888 217.386 73.611 217.623C73.7331 217.859 73.8075 218.118 73.8298 218.383C73.8522 218.648 73.8221 218.915 73.7412 219.169C72.8945 221.726 71.1911 223.913 68.9188 225.359C66.6465 226.806 63.9445 227.424 61.2694 227.108C59.8776 226.87 58.5489 226.35 57.3644 225.581C56.1799 224.813 55.1643 223.811 54.3795 222.637C53.6019 221.548 53.0528 220.312 52.7653 219.005C52.4778 217.699 52.4577 216.347 52.7064 215.032C52.9989 213.731 53.5547 212.504 54.3394 211.427C55.1241 210.349 56.1212 209.443 57.2693 208.766C58.9538 207.753 60.8858 207.227 62.8511 207.245V199.442C62.8511 198.902 63.0659 198.383 63.4481 198.001C63.8303 197.619 64.3487 197.404 64.8892 197.404C65.2042 197.402 65.5158 197.47 65.8018 197.602Z" fill="#83BBE1"/>
<path d="M63.0032 193.343C62.9973 193.016 63.0884 192.695 63.2649 192.419C63.4414 192.144 63.6955 191.926 63.9952 191.795C64.2949 191.664 64.6268 191.624 64.949 191.681C65.2712 191.738 65.5694 191.889 65.806 192.115C66.0426 192.341 66.207 192.632 66.2785 192.951C66.35 193.27 66.3255 193.604 66.2079 193.909C66.0904 194.214 65.8851 194.478 65.618 194.667C65.3508 194.856 65.0337 194.962 64.7067 194.971C64.4877 194.977 64.2697 194.939 64.0652 194.861C63.8608 194.782 63.674 194.664 63.5156 194.512C63.3572 194.361 63.2303 194.18 63.1424 193.979C63.0544 193.778 63.0071 193.562 63.0032 193.343Z" fill="#83BBE1"/>
<path d="M112.571 247.58C112.571 247.58 112.069 247.58 111.233 248.006C110.087 248.5 109.121 249.333 108.465 250.394C107.999 251.12 107.703 251.941 107.598 252.797C107.48 253.779 107.655 254.773 108.099 255.657C108.555 256.706 109.321 257.589 110.295 258.189C111.268 258.788 112.403 259.073 113.544 259.007C114.685 258.941 115.779 258.525 116.677 257.817C117.574 257.109 118.233 256.143 118.564 255.048C118.904 254.117 118.962 253.107 118.731 252.143C118.518 251.305 118.129 250.522 117.59 249.847C116.807 248.867 115.747 248.146 114.548 247.778C113.681 247.535 113.164 247.565 113.164 247.52H113.529C113.681 247.506 113.834 247.506 113.986 247.52C114.186 247.531 114.384 247.561 114.579 247.611C115.866 247.915 117.02 248.63 117.864 249.649C118.464 250.342 118.896 251.164 119.126 252.052C119.376 253.058 119.329 254.115 118.99 255.094C118.618 256.205 117.944 257.19 117.043 257.938C116.083 258.764 114.883 259.259 113.621 259.353C112.358 259.403 111.112 259.051 110.062 258.349C109.075 257.716 108.285 256.82 107.78 255.763C107.328 254.817 107.154 253.762 107.278 252.721C107.407 251.812 107.74 250.944 108.252 250.181C108.98 249.069 110.046 248.222 111.293 247.763C111.487 247.694 111.685 247.638 111.887 247.596C112.03 247.552 112.178 247.526 112.328 247.52C112.411 247.529 112.493 247.549 112.571 247.58Z" fill="#263238"/>
<path d="M127.415 262.288C127.415 262.288 127.096 262.364 126.594 262.592C125.871 262.911 125.261 263.441 124.845 264.113C124.531 264.591 124.346 265.142 124.308 265.712C124.271 266.283 124.383 266.853 124.632 267.368C124.915 268.014 125.39 268.557 125.991 268.925C126.593 269.294 127.292 269.469 127.996 269.427C128.7 269.386 129.375 269.13 129.929 268.694C130.483 268.258 130.89 267.662 131.096 266.988C131.285 266.447 131.33 265.867 131.226 265.304C131.122 264.741 130.873 264.215 130.503 263.778C130.012 263.158 129.343 262.702 128.587 262.47C128.054 262.303 127.735 262.318 127.735 262.273C128.029 262.196 128.338 262.196 128.632 262.273C129.326 262.437 129.963 262.785 130.477 263.28C130.991 263.775 131.362 264.399 131.552 265.086C131.741 265.737 131.741 266.428 131.552 267.079C131.328 267.834 130.877 268.501 130.26 268.991C129.643 269.48 128.891 269.767 128.105 269.814C127.319 269.861 126.537 269.664 125.867 269.251C125.197 268.837 124.67 268.228 124.358 267.505C124.054 266.893 123.943 266.204 124.039 265.528C124.121 264.95 124.334 264.398 124.662 263.915C125.13 263.211 125.813 262.678 126.609 262.394C126.867 262.3 127.142 262.264 127.415 262.288Z" fill="#263238"/>
<path d="M110.168 217.435C110.168 217.435 110.168 217.177 110.168 216.675C110.168 216.173 110.168 215.412 110.168 214.439C110.168 213.937 110.168 213.389 110.168 212.781C110.168 212.173 110.077 211.519 110.031 210.804C109.985 210.089 109.925 209.283 109.849 208.492C109.829 208.067 109.773 207.645 109.681 207.23L109.453 205.891C108.703 201.42 107.283 197.087 105.24 193.039C102.582 187.683 98.9215 182.886 94.4565 178.909L92.5553 177.252C91.8861 176.734 91.1713 176.248 90.4716 175.731L89.3918 174.97C89.0522 174.691 88.6853 174.446 88.2967 174.24L85.9544 172.826C85.559 172.597 85.1787 172.354 84.7681 172.141L83.5057 171.563L80.9657 170.407C80.0836 170.042 79.171 169.768 78.2736 169.449L76.9048 168.978L76.2051 168.749L75.4903 168.582C73.5704 168.075 71.6194 167.694 69.6498 167.441C68.646 167.335 67.627 167.152 66.6079 167.092L63.566 167C63.0489 167 62.5318 167 62.0451 167L60.5241 167.122C59.4595 167.213 58.3948 167.244 57.3453 167.381C55.194 167.686 53.0651 168.133 50.9726 168.719L49.3756 169.175C49.117 169.175 48.8432 169.312 48.5847 169.403L47.809 169.708L44.6758 170.924C43.6568 171.381 42.653 171.928 41.6339 172.445C41.132 172.719 40.6149 172.932 40.113 173.236L38.592 174.164C36.621 175.399 34.7358 176.766 32.9493 178.255L30.3789 180.674L29.7249 181.282L29.1317 181.951L27.9606 183.305L26.7742 184.643L25.7096 186.164L24.6601 187.685L24.1278 188.431C23.9605 188.689 23.8084 188.948 23.6563 189.206L21.8159 192.385C21.314 193.495 20.7969 194.606 20.295 195.731C16.3364 205.033 15.5298 215.374 17.9983 225.177L19.0022 228.736L20.3254 232.143L20.66 232.994L21.0707 233.801L21.892 235.428L22.6981 237.025L23.6715 238.546L24.6297 240.067L25.1012 240.812L25.6487 241.512L27.8237 244.31C29.3595 246.057 31.011 247.698 32.7668 249.223L34.0596 250.364C34.4855 250.744 34.9722 251.048 35.4284 251.383C36.3562 252.037 37.2536 252.736 38.1966 253.345L41.0864 254.957L41.8012 255.383L42.5617 255.733L44.0827 256.417C46.0586 257.318 48.0908 258.09 50.1665 258.729C51.2007 259.033 52.2502 259.231 53.2084 259.489L54.7293 259.854C55.2464 259.961 55.7636 259.991 56.2503 260.067L59.2922 260.463C60.3112 260.569 61.3302 260.463 62.3341 260.584C64.324 260.652 66.3161 260.581 68.2962 260.372H69.0262L69.7411 260.25L71.1708 260.007C72.1138 259.824 73.0568 259.702 73.9693 259.474L76.6766 258.729L78.0151 258.364L79.2927 257.862L81.8022 256.889C82.2174 256.74 82.6194 256.557 83.0038 256.341L84.1901 255.748C84.9658 255.352 85.7111 254.987 86.4868 254.577L88.6161 253.223C93.6779 249.986 98.0633 245.797 101.529 240.888C101.909 240.356 102.305 239.839 102.67 239.367L103.613 237.755L104.525 236.234C104.677 235.975 104.829 235.732 104.966 235.474C105.103 235.215 105.194 234.941 105.316 234.683L106.685 231.732C107.08 230.789 107.354 229.831 107.674 228.964L108.13 227.671C108.279 227.276 108.396 226.869 108.48 226.454L109.027 224.188C109.179 223.488 109.362 222.85 109.468 222.257C109.575 221.663 109.62 221.116 109.696 220.629C109.818 219.656 109.925 218.926 110.001 218.409C110.077 217.891 110.122 217.663 110.122 217.663C110.122 217.663 110.122 217.922 110.122 218.424L109.849 220.644C109.849 221.131 109.727 221.679 109.651 222.272C109.575 222.865 109.377 223.519 109.225 224.219C109.073 224.918 108.89 225.739 108.708 226.485C108.627 226.905 108.51 227.317 108.358 227.717C108.206 228.143 108.069 228.568 107.917 229.01C107.598 229.892 107.339 230.85 106.928 231.808C106.518 232.766 106.046 233.74 105.59 234.85L105.225 235.641C105.103 235.899 104.936 236.158 104.799 236.417C104.495 236.918 104.191 237.451 103.886 237.938C103.582 238.424 103.263 239.017 102.943 239.58C102.624 240.143 102.183 240.63 101.803 241.177C98.3078 246.061 93.9026 250.223 88.829 253.436L86.6845 254.805C85.9392 255.215 85.1635 255.596 84.3726 255.991L83.2015 256.6C82.8105 256.813 82.4037 256.996 81.9847 257.147L79.4448 258.136L78.1672 258.638L76.8287 259.018L74.1062 259.778C73.1784 260.007 72.2202 260.128 71.2772 260.311L69.8323 260.569L69.1175 260.691H68.3722C66.3827 260.91 64.3804 260.991 62.3797 260.934C61.3607 260.934 60.3264 260.934 59.3378 260.813L56.2959 260.417C55.7636 260.417 55.2464 260.311 54.7749 260.189L53.254 259.839C52.2197 259.581 51.1551 259.383 50.1208 259.079C48.0414 258.445 46.0086 257.667 44.037 256.752L42.5161 256.067L41.7556 255.717L41.0255 255.292L38.0901 253.588C37.1471 252.98 36.2345 252.265 35.3068 251.611C34.8353 251.261 34.3486 250.957 33.9227 250.577L32.6147 249.436C30.7604 247.898 29.0171 246.231 27.3978 244.447L25.1924 241.633L24.6449 240.919L24.1582 240.158L23.2 238.637L22.2266 237.116L21.4053 235.504L20.5688 233.861L20.1581 233.04L19.7931 232.143C19.3368 231.002 18.8957 229.846 18.4546 228.705C18.0136 227.565 17.7854 226.317 17.4356 225.116C14.972 215.227 15.7997 204.804 19.7931 195.427L21.314 192.035C21.9376 190.971 22.5612 189.906 23.1696 188.841C23.3369 188.583 23.4738 188.309 23.6411 188.05L24.1734 187.305L25.2533 185.784L26.318 184.263L27.5195 182.894L28.7058 181.541L29.299 180.871L29.953 180.248L32.5538 177.799C34.3583 176.301 36.264 174.929 38.2574 173.693L39.7784 172.765C40.2651 172.445 40.7974 172.232 41.2993 171.959C42.3184 171.457 43.3222 170.894 44.3412 170.438L47.5048 169.206L48.2957 168.902L49.0866 168.673L50.6988 168.232C52.8054 167.641 54.9498 167.194 57.1172 166.894C58.1971 166.757 59.2617 166.711 60.3264 166.62L61.8474 166.514C62.3645 166.514 62.8968 166.514 63.3683 166.514L66.5015 166.605C67.5357 166.605 68.5395 166.848 69.5434 166.97C71.5313 167.216 73.4986 167.608 75.4294 168.141L76.1595 168.308C76.3876 168.308 76.6158 168.46 76.8439 168.537L78.228 169.008C79.1406 169.343 80.0683 169.601 80.9353 169.966L83.673 171.305L84.9354 171.883L86.1369 172.567L88.4792 173.936C88.8665 174.158 89.2375 174.407 89.5895 174.681L90.6694 175.457C91.369 175.974 92.0991 176.461 92.7683 176.978L94.6847 178.651C99.1874 182.679 102.87 187.538 105.529 192.963C107.572 197.033 108.978 201.394 109.696 205.891C109.773 206.347 109.849 206.804 109.925 207.23C110.003 207.652 110.054 208.078 110.077 208.507C110.077 209.328 110.198 210.104 110.244 210.819C110.29 211.534 110.35 212.203 110.366 212.811C110.381 213.42 110.366 213.967 110.366 214.469C110.366 215.443 110.366 216.188 110.366 216.705L110.168 217.435Z" fill="#263238"/>
<path d="M622.744 597.171C622.673 596.957 622.587 596.748 622.485 596.547C622.272 596.106 621.999 595.528 621.649 594.768C620.629 592.465 619.81 590.078 619.2 587.634C617.236 578.556 617.304 569.155 619.398 560.105C620.706 553.833 622.413 547.65 624.508 541.595C626.668 535.04 629.193 528.074 631.231 520.545C633.554 512.683 634.677 504.514 634.562 496.317C634.242 487.754 631.717 479.206 628.919 470.689C626.12 462.171 623.261 453.836 622.394 445.456C621.423 437.402 623.02 429.248 626.957 422.155C630.653 415.356 635.292 409.531 638.775 403.508C642.017 397.921 644.411 391.883 645.878 385.591C647.965 376.467 648.115 367.005 646.319 357.819C645.679 354.462 644.711 351.176 643.429 348.009C643.465 348.231 643.521 348.45 643.596 348.663C643.748 349.134 643.931 349.758 644.189 350.549C644.913 352.96 645.512 355.407 645.984 357.88C647.642 367.018 647.399 376.399 645.269 385.439C643.786 391.663 641.382 397.63 638.136 403.143C634.668 409.09 630.014 414.885 626.242 421.76C622.177 428.985 620.511 437.314 621.481 445.547C622.348 454.065 625.238 462.46 628.022 470.962C630.805 479.464 633.314 487.936 633.634 496.347C633.759 504.454 632.667 512.534 630.394 520.317C628.371 527.815 625.831 534.781 623.748 541.367C621.668 547.456 619.991 553.675 618.729 559.984C616.386 571.573 617.055 581.368 618.805 587.726C619.46 590.173 620.335 592.555 621.421 594.844L622.348 596.593C622.459 596.799 622.591 596.993 622.744 597.171Z" fill="#263238"/>
<path d="M634.12 409.394C634.12 409.394 641.178 386.823 628.508 373.606C628.41 373.499 628.283 373.421 628.143 373.382C628.003 373.343 627.855 373.344 627.715 373.385C627.575 373.426 627.45 373.506 627.354 373.615C627.257 373.724 627.193 373.858 627.17 374.002C626.5 377.728 625.649 389.074 634.12 409.394Z" fill="#E183D8"/>
<path d="M629.892 381.196C629.904 382.598 630.062 383.994 630.364 385.363C630.82 388.238 631.367 391.599 631.976 395.325C632.584 399.052 633.101 402.413 633.497 405.272C633.609 406.668 633.858 408.048 634.242 409.394C634.365 407.995 634.319 406.585 634.105 405.196C633.877 402.626 633.421 399.113 632.782 395.173C632.143 391.234 631.474 387.782 630.911 385.257C630.719 383.87 630.378 382.509 629.892 381.196Z" fill="#263238"/>
<path d="M625.831 462.612C625.831 462.612 621.512 439.372 604.142 433.608C604.006 433.563 603.859 433.557 603.719 433.59C603.579 433.622 603.45 433.692 603.347 433.792C603.244 433.892 603.17 434.019 603.133 434.158C603.096 434.297 603.098 434.443 603.139 434.581C604.279 438.186 608.842 448.62 625.831 462.612Z" fill="#E183D8"/>
<path d="M608.873 439.615C609.541 440.842 610.331 441.999 611.23 443.068L617.314 451.114C619.58 454.156 621.618 456.863 623.398 459.175C624.165 460.346 625.03 461.45 625.983 462.475C625.436 461.183 624.742 459.958 623.915 458.825C622.5 456.65 620.432 453.73 618.044 450.582C615.656 447.433 613.481 444.665 611.762 442.688C610.914 441.561 609.945 440.531 608.873 439.615Z" fill="#263238"/>
<path d="M630.516 520.941C630.516 520.941 633.147 497.442 618.196 486.887C618.078 486.803 617.94 486.754 617.796 486.744C617.652 486.733 617.508 486.763 617.379 486.829C617.251 486.894 617.143 486.994 617.067 487.117C616.991 487.24 616.95 487.381 616.949 487.525C616.994 491.313 618.333 502.613 630.516 520.941Z" fill="#E183D8"/>
<path d="M620.979 494.005C621.255 495.38 621.678 496.721 622.242 498.005C623.246 500.727 624.417 503.937 625.71 507.465C627.002 510.994 628.174 514.203 629.162 516.941C629.545 518.284 630.054 519.587 630.683 520.834C630.543 519.438 630.231 518.063 629.755 516.743C629.041 514.264 627.915 510.857 626.546 507.161C625.177 503.465 623.839 500.149 622.82 497.777C622.345 496.456 621.728 495.192 620.979 494.005Z" fill="#263238"/>
<path d="M617.436 579.619C617.436 579.619 619.215 556.029 603.899 546.021C603.78 545.938 603.639 545.89 603.494 545.883C603.348 545.877 603.204 545.911 603.077 545.982C602.95 546.054 602.845 546.159 602.776 546.287C602.706 546.415 602.674 546.56 602.683 546.706C602.865 550.478 604.599 561.733 617.436 579.619Z" fill="#E183D8"/>
<path d="M606.88 553.063C607.226 554.423 607.7 555.747 608.295 557.018C609.39 559.71 610.683 562.858 612.112 566.341C613.542 569.824 614.805 573.003 615.9 575.68C616.318 577.016 616.873 578.306 617.557 579.528C617.356 578.137 616.994 576.774 616.478 575.467C615.671 573.018 614.424 569.657 612.919 566.007C611.413 562.356 609.968 559.101 608.858 556.759C608.346 555.454 607.682 554.213 606.88 553.063Z" fill="#263238"/>
<path d="M644.265 389.561C644.265 389.561 665.224 378.61 665.635 360.313C665.637 360.169 665.6 360.026 665.527 359.902C665.454 359.777 665.348 359.674 665.221 359.605C665.094 359.536 664.951 359.503 664.807 359.51C664.662 359.517 664.522 359.563 664.403 359.644C661.285 361.804 652.661 369.211 644.265 389.561Z" fill="#E183D8"/>
<path d="M661.285 366.61C660.294 367.6 659.417 368.696 658.669 369.88L652.752 378.048C650.547 381.089 648.539 383.858 646.821 386.2C645.933 387.279 645.134 388.429 644.433 389.637C645.515 388.744 646.486 387.722 647.322 386.595C648.98 384.603 651.17 381.774 653.406 378.565C655.642 375.355 657.726 372.481 659.125 370.23C659.97 369.102 660.694 367.889 661.285 366.61Z" fill="#263238"/>
<path d="M621.755 438.034C621.755 438.034 643.383 428.345 644.904 410.094C644.921 409.948 644.896 409.801 644.833 409.668C644.77 409.536 644.67 409.425 644.546 409.346C644.422 409.268 644.278 409.227 644.131 409.228C643.985 409.228 643.841 409.27 643.717 409.349C640.432 411.356 631.367 418.231 621.755 438.034Z" fill="#E183D8"/>
<path d="M640.128 416.178C639.094 417.094 638.157 418.113 637.33 419.22L630.926 427.007L624.523 434.794C623.558 435.808 622.688 436.908 621.922 438.079C623.046 437.244 624.067 436.279 624.964 435.205C626.744 433.319 629.101 430.642 631.596 427.6C634.09 424.558 636.28 421.714 637.801 419.63C638.711 418.576 639.492 417.417 640.128 416.178Z" fill="#263238"/>
<path d="M634.166 492.088C634.166 492.088 648.995 473.67 642.044 456.741C641.991 456.606 641.901 456.489 641.785 456.402C641.669 456.314 641.531 456.261 641.387 456.246C641.242 456.232 641.096 456.258 640.966 456.321C640.835 456.385 640.724 456.482 640.645 456.604C638.653 459.829 633.725 470.095 634.166 492.088Z" fill="#E183D8"/>
<path d="M640.569 464.24C640.073 465.548 639.711 466.904 639.489 468.285C638.866 471.13 638.151 474.461 637.345 478.141L635.185 487.982C634.789 489.323 634.514 490.698 634.364 492.088C635.001 490.841 635.476 489.517 635.778 488.149C636.508 485.655 637.39 482.187 638.212 478.339C639.033 474.491 639.733 470.962 640.098 468.407C640.409 467.04 640.567 465.642 640.569 464.24Z" fill="#263238"/>
<path d="M619.489 555.71C619.489 555.71 640.904 545.702 642.121 527.435C642.132 527.292 642.103 527.149 642.037 527.021C641.971 526.894 641.871 526.787 641.748 526.713C641.625 526.639 641.484 526.6 641.34 526.601C641.197 526.603 641.056 526.644 640.935 526.72C637.725 528.728 628.782 535.755 619.489 555.71Z" fill="#E183D8"/>
<path d="M637.497 533.534C636.478 534.491 635.556 535.545 634.744 536.683L628.493 544.591C626.135 547.542 624.021 550.204 622.196 552.47C621.255 553.502 620.41 554.616 619.671 555.801C620.8 554.954 621.821 553.974 622.713 552.881C624.462 550.964 626.774 548.242 629.208 545.139C631.641 542.036 633.771 539.177 635.292 537.063C636.154 535.971 636.893 534.788 637.497 533.534Z" fill="#263238"/>
<path d="M576.826 462.749C576.826 462.749 576.826 462.932 576.826 463.266C576.826 463.601 576.826 464.179 576.826 464.787C576.902 466.217 576.978 468.133 577.085 470.521C577.359 475.571 577.754 482.598 578.21 491.008C579.731 499.556 584.096 509.047 589.952 518.249C594.241 525.032 598.743 531.207 602.637 536.941C606.163 541.95 609.335 547.2 612.127 552.653C613.97 556.348 615.462 560.207 616.584 564.181C616.964 565.596 617.238 566.691 617.405 567.451C617.468 567.842 617.575 568.225 617.725 568.592C617.699 568.194 617.648 567.798 617.572 567.406C617.466 566.645 617.238 565.52 616.918 564.09C615.91 560.053 614.493 556.129 612.69 552.379C609.964 546.853 606.827 541.541 603.306 536.485C599.458 530.705 594.971 524.53 590.697 517.777C584.887 508.651 580.553 499.282 578.956 490.856C578.362 482.445 577.86 475.434 577.511 470.4C577.313 468.012 577.161 466.095 577.054 464.666C577.054 464.072 576.933 463.57 576.902 463.145C576.889 463.011 576.863 462.878 576.826 462.749Z" fill="#263238"/>
<path d="M589.572 516.56C589.572 516.56 580.446 494.72 591.914 480.407C592.002 480.291 592.121 480.202 592.257 480.151C592.393 480.099 592.541 480.087 592.684 480.116C592.827 480.144 592.959 480.212 593.065 480.312C593.171 480.412 593.246 480.54 593.283 480.681C594.302 484.301 596.233 495.526 589.572 516.56Z" fill="#E183D8"/>
<path d="M591.23 487.997C590.839 489.345 590.599 490.733 590.515 492.134C590.195 494.689 589.83 498.218 589.541 502.188C589.252 506.157 589.131 509.686 589.131 512.287C589.039 513.686 589.126 515.092 589.389 516.469C589.633 515.094 589.755 513.699 589.754 512.302C589.952 509.397 590.18 506.005 590.423 502.248C590.667 498.492 590.925 495.085 591.138 492.18C591.307 490.792 591.337 489.391 591.23 487.997Z" fill="#263238"/>
<g opacity="0.3">
<path d="M589.572 516.56C589.572 516.56 580.446 494.72 591.914 480.407C592.002 480.291 592.121 480.202 592.257 480.151C592.393 480.099 592.541 480.087 592.684 480.116C592.827 480.144 592.959 480.212 593.065 480.312C593.171 480.412 593.246 480.54 593.283 480.681C594.302 484.301 596.233 495.526 589.572 516.56Z" fill="black"/>
</g>
<path d="M617.679 569.155C617.679 569.155 610.409 546.645 622.942 533.306C623.041 533.204 623.166 533.131 623.304 533.094C623.442 533.057 623.587 533.058 623.724 533.097C623.861 533.136 623.985 533.212 624.083 533.315C624.181 533.419 624.249 533.547 624.28 533.686C624.995 537.413 625.953 548.759 617.679 569.155Z" fill="#E183D8"/>
<path d="M621.633 540.896C621.133 542.206 620.781 543.568 620.584 544.957C620.052 547.481 619.413 551.04 618.804 554.888C618.196 558.736 617.785 562.341 617.572 564.927C617.4 566.321 617.4 567.731 617.572 569.124C617.922 567.773 618.156 566.394 618.272 565.003C618.698 562.128 619.2 558.752 619.793 555.025C620.386 551.299 620.873 547.938 621.314 545.063C621.563 543.688 621.67 542.292 621.633 540.896Z" fill="#263238"/>
<g opacity="0.3">
<path d="M617.679 569.155C617.679 569.155 610.409 546.645 622.942 533.306C623.041 533.204 623.166 533.131 623.304 533.094C623.442 533.057 623.587 533.058 623.724 533.097C623.861 533.136 623.985 533.212 624.083 533.315C624.181 533.419 624.249 533.547 624.28 533.686C624.995 537.413 625.953 548.759 617.679 569.155Z" fill="black"/>
</g>
<path d="M577.982 489.837C577.982 489.837 558.605 476.27 560.567 458.08C560.578 457.935 560.63 457.797 560.715 457.68C560.801 457.563 560.918 457.472 561.053 457.419C561.187 457.365 561.334 457.35 561.477 457.375C561.62 457.401 561.752 457.466 561.86 457.563C564.719 460.103 572.324 468.574 577.982 489.837Z" fill="#E183D8"/>
<g opacity="0.3">
<path d="M577.982 489.837C577.982 489.837 558.605 476.27 560.567 458.08C560.578 457.935 560.63 457.797 560.715 457.68C560.801 457.563 560.918 457.472 561.053 457.419C561.187 457.365 561.334 457.35 561.477 457.375C561.62 457.401 561.752 457.466 561.86 457.563C564.719 460.103 572.324 468.574 577.982 489.837Z" fill="black"/>
</g>
<path d="M564.111 464.848C564.504 466.191 565.045 467.487 565.724 468.711C566.819 471.054 568.431 474.247 570.286 477.715C572.142 481.183 573.967 484.286 575.351 486.461C576.036 487.689 576.863 488.832 577.815 489.868C577.295 488.568 576.654 487.32 575.899 486.141C574.499 483.601 572.857 480.605 571.062 477.305L566.256 468.437C565.664 467.172 564.945 465.969 564.111 464.848Z" fill="#263238"/>
<path d="M609.922 546.843C609.922 546.843 586.56 543.192 580.309 526.005C580.256 525.871 580.241 525.725 580.266 525.583C580.292 525.441 580.356 525.308 580.453 525.201C580.549 525.093 580.674 525.015 580.812 524.974C580.951 524.934 581.098 524.933 581.237 524.971C584.827 526.005 595.382 530.249 609.922 546.843Z" fill="#E183D8"/>
<g opacity="0.3">
<path d="M609.922 546.843C609.922 546.843 586.56 543.192 580.309 526.005C580.256 525.871 580.241 525.725 580.266 525.583C580.292 525.441 580.356 525.308 580.453 525.201C580.549 525.093 580.674 525.015 580.812 524.974C580.951 524.934 581.098 524.933 581.237 524.971C584.827 526.005 595.382 530.249 609.922 546.843Z" fill="black"/>
</g>
<path d="M586.378 530.553C587.318 531.594 588.374 532.523 589.526 533.321C591.549 534.934 594.393 537.093 597.603 539.405C600.812 541.717 603.808 543.679 606.013 545.017C607.167 545.823 608.413 546.487 609.725 546.995C608.682 546.057 607.551 545.222 606.348 544.5L598.12 538.69L589.907 532.835C588.808 531.96 587.626 531.196 586.378 530.553Z" fill="#263238"/>
<path d="M637.512 589.84L630.805 633.795L604.051 633.75L595.032 589.84H637.512Z" fill="#455A64"/>
<path d="M613.086 603.954C613.813 602.858 614.239 601.588 614.318 600.274C614.397 599.539 614.27 598.796 613.95 598.13C613.63 597.464 613.131 596.9 612.508 596.502C611.799 596.144 611.004 595.989 610.213 596.054C609.421 596.118 608.663 596.399 608.021 596.867C606.692 597.84 605.779 599.28 605.466 600.897C605.11 602.53 604.997 604.206 605.131 605.871C605.215 607.606 605.58 609.317 606.211 610.936C606.85 612.636 607.894 614.155 609.253 615.362C610.685 616.632 612.499 617.392 614.409 617.521C616.305 617.562 618.17 617.032 619.763 616C621.288 615.024 622.64 613.801 623.763 612.38C624.91 611.015 625.615 609.334 625.786 607.559C625.852 606.687 625.715 605.811 625.385 605C625.055 604.19 624.542 603.467 623.884 602.89C623.205 602.39 622.396 602.097 621.554 602.045C620.713 601.994 619.874 602.187 619.139 602.601C618.44 602.951 617.829 603.457 617.355 604.079C616.881 604.701 616.554 605.423 616.401 606.19C616.202 607.555 616.419 608.949 617.024 610.189C617.629 611.429 618.594 612.458 619.793 613.141C621.766 614.217 624.059 614.551 626.257 614.084C627.869 613.742 629.412 613.13 630.82 612.274C631.716 611.749 632.58 611.17 633.406 610.54C633.708 610.337 633.984 610.097 634.227 609.825C633.912 610.007 633.608 610.205 633.314 610.418C632.721 610.799 631.793 611.392 630.683 612.031C629.262 612.823 627.721 613.378 626.12 613.673C624.041 614.064 621.89 613.72 620.036 612.7C618.954 612.056 618.086 611.105 617.545 609.968C617.003 608.831 616.812 607.558 616.994 606.312C617.138 605.64 617.431 605.009 617.853 604.467C618.274 603.924 618.813 603.484 619.428 603.179C620.052 602.828 620.764 602.664 621.479 602.707C622.194 602.75 622.881 602.998 623.458 603.422C624.027 603.933 624.469 604.567 624.751 605.277C625.034 605.987 625.148 606.752 625.086 607.513C624.914 609.147 624.251 610.69 623.185 611.939C622.113 613.284 620.828 614.445 619.382 615.377C617.915 616.34 616.194 616.843 614.439 616.822C612.695 616.692 611.04 615.998 609.724 614.844C608.438 613.719 607.441 612.3 606.819 610.707C606.211 609.157 605.857 607.519 605.77 605.856C605.634 604.263 605.731 602.659 606.059 601.095C606.324 599.631 607.133 598.321 608.325 597.43C608.867 597.026 609.509 596.777 610.181 596.71C610.854 596.643 611.532 596.761 612.143 597.049C612.669 597.398 613.09 597.884 613.358 598.456C613.626 599.027 613.732 599.661 613.664 600.289C613.602 601.503 613.219 602.679 612.553 603.696C611.338 605.449 609.588 606.762 607.565 607.437C606.044 607.972 604.423 608.165 602.819 608C601.444 607.836 600.107 607.44 598.865 606.829C598.865 606.829 598.865 606.829 599.078 606.996C599.309 607.14 599.547 607.272 599.793 607.392C600.748 607.861 601.777 608.164 602.834 608.289C604.491 608.512 606.178 608.351 607.762 607.818C609.896 607.149 611.754 605.803 613.055 603.985" fill="#3C444A"/>
</svg>
