<svg width="41" height="41" viewBox="0 0 41 41" fill="none" xmlns="http://www.w3.org/2000/svg">
<g id="solar:star-broken">
<path id="Vector" d="M10.1635 13.0314C6.06047 13.9604 4.00896 14.4241 3.52027 15.9936C3.03324 17.5614 4.43094 19.1976 7.228 22.4684L7.95187 23.314C8.74579 24.243 9.14441 24.7083 9.32288 25.2821C9.50134 25.8575 9.4413 26.478 9.32121 27.7172L9.21113 28.8464C8.78915 33.2113 8.57733 35.3929 9.85494 36.3619C11.1325 37.3326 13.054 36.447 16.8935 34.679L17.8892 34.222C18.98 33.7183 19.5254 33.4681 20.1042 33.4681C20.6829 33.4681 21.2283 33.7183 22.3208 34.222L23.3132 34.679C27.1544 36.447 29.0758 37.331 30.3517 36.3636C31.631 35.3929 31.4192 33.2113 30.9972 28.8464M32.9803 22.4684C35.7774 19.1993 37.1751 17.5631 36.6881 15.9936C36.1994 14.4241 34.1478 13.9587 30.0448 13.0314L28.984 12.7912C27.8182 12.5277 27.2361 12.3959 26.7674 12.0407C26.3004 11.6854 26.0002 11.1467 25.3997 10.0692L24.8527 9.08849C22.7394 5.29903 21.6837 3.4043 20.1042 3.4043C18.5247 3.4043 17.4689 5.29903 15.3557 9.08849" stroke="#EE7DA5" stroke-width="2.50184" stroke-linecap="round"/>
</g>
</svg>
