<svg width="26" height="26" viewBox="0 0 26 26" fill="none" xmlns="http://www.w3.org/2000/svg">
<g clip-path="url(#clip0_4819_12410)">
<path d="M10.3977 10.354C10.2414 10.354 10.0915 10.4161 9.98097 10.5266C9.87045 10.6371 9.80837 10.787 9.80837 10.9433C9.80837 11.0996 9.87045 11.2494 9.98097 11.36C10.0915 11.4705 10.2414 11.5326 10.3977 11.5326H11.9612V15.2804C11.9612 15.4367 12.0233 15.5866 12.1338 15.6971C12.2443 15.8076 12.3942 15.8697 12.5505 15.8697C12.7068 15.8697 12.8567 15.8076 12.9672 15.6971C13.0777 15.5866 13.1398 15.4367 13.1398 15.2804V11.5326H14.6955C14.8518 11.5326 15.0017 11.4705 15.1122 11.36C15.2227 11.2494 15.2848 11.0996 15.2848 10.9433C15.2848 10.787 15.2227 10.6371 15.1122 10.5266C15.0017 10.4161 14.8518 10.354 14.6955 10.354H10.3977ZM21.8746 10.4758C21.9461 10.5309 22.0041 10.6017 22.044 10.6828C22.0839 10.7638 22.1047 10.8529 22.1048 10.9433V15.2804C22.1048 15.4367 22.0427 15.5866 21.9322 15.6971C21.8217 15.8076 21.6718 15.8697 21.5155 15.8697C21.3592 15.8697 21.2093 15.8076 21.0988 15.6971C20.9883 15.5866 20.9262 15.4367 20.9262 15.2804V12.3654L19.6141 13.6776C19.559 13.7328 19.4935 13.7766 19.4213 13.8063C19.3491 13.8359 19.2718 13.8509 19.1937 13.8504C19.1156 13.8511 19.0381 13.8361 18.9657 13.8064C18.8934 13.7767 18.8278 13.7329 18.7726 13.6776L17.4691 12.3693V15.2804C17.4691 15.4367 17.407 15.5866 17.2965 15.6971C17.186 15.8076 17.0361 15.8697 16.8798 15.8697C16.7235 15.8697 16.5736 15.8076 16.4631 15.6971C16.3526 15.5866 16.2905 15.4367 16.2905 15.2804V10.9433C16.2908 10.8268 16.3255 10.713 16.3902 10.6161C16.4549 10.5192 16.5468 10.4436 16.6543 10.3988C16.7621 10.3538 16.8808 10.342 16.9954 10.365C17.1099 10.3879 17.2149 10.4446 17.297 10.5276L19.1945 12.4306L21.0991 10.5268C21.2071 10.4184 21.3531 10.3564 21.5061 10.354H21.5155C21.6454 10.3537 21.7717 10.3966 21.8746 10.4758ZM7.87394 10.8482C7.70108 10.4828 7.3318 10.3988 7.12515 10.3988C6.9193 10.3988 6.54923 10.4828 6.37637 10.8482L4.45608 15.0345C4.42379 15.1049 4.40567 15.1809 4.40276 15.2583C4.39985 15.3356 4.41221 15.4128 4.43913 15.4854C4.46606 15.558 4.50701 15.6246 4.55967 15.6814C4.61232 15.7381 4.67564 15.784 4.74601 15.8163C4.81638 15.8486 4.89242 15.8667 4.9698 15.8696C5.04717 15.8725 5.12436 15.8601 5.19695 15.8332C5.26955 15.8063 5.33613 15.7653 5.39289 15.7127C5.44966 15.66 5.4955 15.5967 5.5278 15.5263L5.84601 14.8326H8.4043L8.72251 15.5263C8.78774 15.6685 8.90674 15.7788 9.05336 15.8332C9.19997 15.8876 9.36218 15.8815 9.5043 15.8163C9.64641 15.751 9.7568 15.632 9.81117 15.4854C9.86555 15.3388 9.85945 15.1766 9.79423 15.0345L7.87708 10.8545L7.87394 10.8482ZM7.86373 13.654H6.38658L7.12515 12.0433L7.86373 13.654Z" fill="#E0E0E0"/>
<path d="M5.49498 1.51367C4.97907 1.51367 4.46821 1.61529 3.99158 1.81272C3.51494 2.01015 3.08186 2.29952 2.71706 2.66432C1.98031 3.40107 1.56641 4.40032 1.56641 5.44224V21.1565C1.56641 22.1985 1.98031 23.1977 2.71706 23.9344C3.08186 24.2993 3.51494 24.5886 3.99158 24.7861C4.46821 24.9835 4.97907 25.0851 5.49498 25.0851H21.2093C22.2512 25.0851 23.2504 24.6712 23.9872 23.9344C24.7239 23.1977 25.1378 22.1985 25.1378 21.1565V5.44224C25.1378 4.92634 25.0362 4.41548 24.8388 3.93884C24.6414 3.46221 24.352 3.02913 23.9872 2.66432C23.6224 2.29952 23.1893 2.01015 22.7127 1.81272C22.236 1.61529 21.7252 1.51367 21.2093 1.51367H5.49498ZM3.13783 5.44224C3.13783 4.81709 3.38618 4.21754 3.82823 3.77549C4.27028 3.33344 4.86982 3.0851 5.49498 3.0851H21.2093C21.8344 3.0851 22.434 3.33344 22.876 3.77549C23.3181 4.21754 23.5664 4.81709 23.5664 5.44224V21.1565C23.5664 21.7817 23.3181 22.3812 22.876 22.8233C22.434 23.2653 21.8344 23.5137 21.2093 23.5137H5.49498C4.86982 23.5137 4.27028 23.2653 3.82823 22.8233C3.38618 22.3812 3.13783 21.7817 3.13783 21.1565V5.44224Z" fill="#E0E0E0"/>
</g>
<defs>
<clipPath id="clip0_4819_12410">
<rect width="25.1429" height="25.1429" fill="white" transform="translate(0.78125 0.728516)"/>
</clipPath>
</defs>
</svg>
